<?xml version='1.0' encoding='iso-8859-1'?>
<svg version="1.1" xmlns="http://www.w3.org/2000/svg" viewBox="0 0 137.145 137.145" xmlns:xlink="http://www.w3.org/1999/xlink" enable-background="new 0 0 137.145 137.145">
  <g>
    <g>
      <path d="m68.572,54.909c-1.909,0-3.535,0.671-4.877,2.013-1.342,1.343-1.981,2.164-1.981,4.792 0,2.629 0.639,3.557 1.981,4.885 1.342,1.329 2.967,1.993 4.877,1.993 1.909,0 3.541-0.664 4.897-1.993 1.355-1.328 2.033-2.938 2.033-4.828s-0.678-3.506-2.033-4.849c-1.356-1.341-2.988-2.013-4.897-2.013zm-10.286-27.161c0.851-0.503-0.794-0.539 0,0zm27.601,17.822c-8.999-6-16.419-10.233-27.6-17.822-17.796,10.527-29.144,18.589-29.144,18.589-1.144,0.456-1.714,1.308-1.714,2.558v57.985c0,1.023 0.399,1.79 1.2,2.302 0.457,0.285 0.971,0.426 1.543,0.426 0.228,0 0.571-0.056 1.028-0.171l26.229-13.899 20.914,13.815c0.686,0.341 1.428,0.369 2.228,0.085l27.429-14.24c1.142-0.455 1.714-1.307 1.714-2.558 0,0-0.171-33.517 0-65.211l-23.827,18.141zm1.419,25.945c-1.207,3.296-2.666,6.238-4.377,8.828-1.712,2.591-3.424,4.982-5.135,7.172-1.713,2.191-3.172,3.877-4.377,5.057l-1.809,1.772c-1.284,1.105-2.344,1.648-3.181,1.628-0.837-0.019-1.858-0.561-3.064-1.628-0.467-0.457-1.09-1.086-1.867-1.886-0.779-0.8-2.169-2.419-4.173-4.857-2.004-2.437-3.764-4.875-5.281-7.314-1.518-2.438-2.899-5.334-4.144-8.686-1.246-3.352-1.868-6.495-1.868-9.429 0-5.791 2.014-10.743 6.04-14.857 4.027-4.114 8.86-6.172 14.502-6.172 5.641,0 10.475,2.058 14.502,6.172 4.027,4.114 6.04,9.067 6.04,14.857 0.001,2.934-0.603,6.049-1.808,9.343zm22.41-71.515h-82.287c-15.148,0-27.429,12.281-27.429,27.429v82.287c0,15.148 12.28,27.429 27.429,27.429h82.286c15.149,0 27.429-12.281 27.429-27.429v-82.287c0-15.148-12.28-27.429-27.428-27.429zm13.714,102.859c0,11.361-9.21,20.571-20.572,20.571h-68.571c-11.361,0-20.572-9.21-20.572-20.571v-68.573c0-11.362 9.21-20.572 20.572-20.572h68.572c11.361,0 20.572,9.21 20.572,20.572v68.573z"/>
    </g>
  </g>
</svg>
